<?xml version="1.0" standalone="no"?>
<svg width="801px" height="276px" viewBox="0 516 801 276 " xmlns="http://www.w3.org/2000/svg" xmlns:xlink="http://www.w3.org/1999/xlink">
<title>generated by pstoedit</title>
<!-- generated by pstoedit version:4.3 -->
<g xml:space='preserve'>
<clipPath id="clippath1"> 	<path d="
	M 0 516 
	L 0 792 
	L 801.031 792 
	L 801.031 516 
	Z 
	" style="clip-rule:nonzero"/>
</clipPath>
<g style="clip-path:url(#clippath1)"> 
<g fill="#000000" fill-rule="evenodd" stroke-width="0" stroke-linejoin="miter" stroke-linecap="butt" stroke-miterlimit="10" >
	<path d="
	M 317.371 621.684 
	C 316.18 625.391 314.41 628.75 312.121 631.711 
	C 309.809 634.695 306.949 637.184 303.566 639.199 
	C 300.156 641.215 296.324 642.457 292.07 642.953 
	C 290.008 643.203 288.141 643.379 286.426 643.504 
	C 284.73 643.625 282.793 643.699 280.602 643.699 
	L 247.066 643.727 
	L 246.992 576.852 
	L 272.145 576.828 
	C 275.652 576.828 278.91 576.902 281.895 577.078 
	C 284.855 577.277 288.066 577.473 291.449 577.723 
	C 295.578 578.32 299.359 579.641 302.77 581.703 
	C 306.152 583.77 309.09 586.332 311.5 589.34 
	C 313.938 592.375 315.828 595.734 317.172 599.367 
	C 318.516 603 319.188 606.656 319.188 610.289 
	C 319.188 614.195 318.59 617.977 317.371 621.684 
	Z 
	M 157.953 661.215 
	C 161.535 657.16 164.992 652.906 168.352 648.477 
	C 171.387 644.441 174.102 640.105 176.535 635.492 
	L 176.648 731.844 
	L 95.2852 731.945 
	Z 
	M 686.617 655.867 
	C 682.137 613.773 677.734 571.355 673.406 528.59 
	C 673.184 526.301 672.188 524.383 670.422 522.867 
	C 668.652 521.348 666.688 520.578 664.5 520.602 
	L 602.18 520.676 
	C 597.676 520.676 594.59 522.992 592.898 527.594 
	L 543.168 693.133 
	L 493.461 527.691 
	C 492.066 523.09 489.133 520.801 484.629 520.801 
	L 421.586 520.875 
	C 418.926 520.875 416.859 521.672 415.395 523.266 
	C 413.949 524.832 413.105 526.723 412.879 528.914 
	L 389.074 764.062 
	L 347.152 685.348 
	C 353.719 681.566 359.766 677.035 365.289 671.738 
	C 370.813 666.465 375.563 660.566 379.566 654.051 
	C 383.574 647.559 386.684 640.566 388.922 633.078 
	C 391.16 625.613 392.281 617.754 392.258 609.492 
	C 392.258 597.328 389.895 585.883 385.215 575.137 
	C 380.516 564.387 374.094 555.008 365.961 547 
	C 357.801 539.012 348.246 532.668 337.324 527.992 
	C 326.379 523.34 314.66 521 302.148 521.027 
	L 184.422 521.176 
	C 181.734 521.176 179.746 521.945 178.402 523.465 
	C 177.086 524.98 176.41 527.02 176.41 529.559 
	L 176.449 561.773 
	C 171.477 552.832 165.09 545.102 157.281 538.613 
	C 148.574 531.398 138.523 525.801 127.102 521.871 
	C 115.66 517.941 103.691 515.977 91.1797 516 
	C 78.9141 516.023 67.3711 518.141 56.5742 522.418 
	C 45.7773 526.672 36.2969 532.645 28.1641 540.305 
	C 20.0273 547.969 13.6094 557.125 8.88281 567.746 
	C 4.15625 578.395 1.81641 590.09 1.81641 602.852 
	L 1.83984 612.328 
	C 1.83984 614.145 2.41406 615.887 3.55859 617.504 
	C 4.72656 619.145 6.81641 619.969 9.85156 619.969 
	L 56.5 619.918 
	C 59.4336 619.918 61.6719 618.922 63.2422 616.98 
	C 64.832 615.039 65.6055 613.102 65.6055 611.16 
	L 65.6055 601.133 
	C 65.6055 597.727 66.3242 594.418 67.7695 591.184 
	C 69.2344 587.973 71.1758 585.113 73.5898 582.625 
	C 76.0273 580.137 78.8398 578.145 82.0742 576.68 
	C 85.2813 575.234 88.7148 574.488 92.3477 574.488 
	C 95.6328 574.488 98.8398 575.035 102.027 576.133 
	C 105.184 577.199 108.023 578.816 110.586 580.934 
	C 113.145 583.07 115.211 585.711 116.777 588.867 
	C 118.371 592.027 119.168 595.66 119.168 599.789 
	C 119.168 603.074 118.742 606.035 117.898 608.723 
	C 117.051 611.383 114.988 614.617 111.727 618.375 
	L 1.26953 750.629 
	C 0.421875 752.219 0 753.863 0 755.555 
	L 0.0234375 782.695 
	C 0.0234375 785.133 1.01953 787.297 2.96094 789.164 
	C 4.90234 791.055 7.03906 792 9.32813 792 
	L 177.156 791.777 
	C 178.43 791.777 179.59 791.508 180.645 790.977 
	C 181.805 791.512 183.172 791.777 184.746 791.777 
	L 238.855 791.699 
	C 244.453 791.699 247.238 789.09 247.238 783.863 
	L 247.141 701.691 
	L 276.672 701.641 
	L 321.055 784.859 
	C 321.527 786.926 322.598 788.566 324.238 789.785 
	C 325.883 791.004 327.723 791.602 329.813 791.602 
	L 392.305 791.527 
	C 392.742 791.527 393.148 791.492 393.547 791.449 
	C 393.992 791.496 394.453 791.527 394.941 791.527 
	L 446.516 791.453 
	C 452.238 791.453 455.199 788.793 455.445 783.441 
	L 471.121 642.902 
	L 512.293 784.262 
	C 512.418 785.605 513.289 787.098 514.93 788.742 
	C 516.574 790.383 518.141 791.203 519.582 791.18 
	L 567.523 791.129 
	C 568.969 791.129 570.461 790.281 571.977 788.566 
	C 573.492 786.875 574.363 785.406 574.613 784.188 
	L 615.438 642.383 
	L 631.461 783.219 
	C 631.711 788.566 634.645 791.23 640.219 791.23 
	L 691.793 791.152 
	C 697.141 791.152 699.801 788.793 699.801 784.039 
	L 699.801 783.145 
	C 695.496 740.379 691.094 697.961 686.617 655.867 
	Z 
	"/>
</g>
<g fill="#f9e011" fill-rule="evenodd" stroke-width="0" stroke-linejoin="miter" stroke-linecap="butt" stroke-miterlimit="10" >
	<path d="
	M 683.703 527.492 
	C 685.422 522.867 688.508 520.555 693.012 520.555 
	L 706.719 520.527 
	C 708.906 520.527 710.898 521.301 712.641 522.816 
	C 714.406 524.336 715.398 526.25 715.648 528.539 
	C 719.953 571.305 724.355 613.723 728.836 655.816 
	C 733.336 697.91 737.715 740.328 742.02 783.094 
	L 742.047 783.988 
	C 742.047 788.742 739.359 791.105 734.035 791.105 
	L 717.168 791.129 
	C 711.57 791.152 708.656 788.469 708.41 783.117 
	Z 
	"/>
</g>
<g fill="#49baff" fill-rule="evenodd" stroke-width="0" stroke-linejoin="miter" stroke-linecap="butt" stroke-miterlimit="10" >
	<path d="
	M 725.375 526.871 
	C 727.066 522.246 730.152 519.93 734.656 519.93 
	L 765.73 519.883 
	C 767.918 519.883 769.883 520.652 771.648 522.172 
	C 773.418 523.687 774.41 525.578 774.66 527.891 
	C 778.965 570.656 783.367 613.074 787.848 655.168 
	C 792.348 697.262 796.727 739.68 801.031 782.445 
	L 801.031 783.344 
	C 801.055 788.094 798.367 790.457 793.02 790.457 
	L 758.813 790.508 
	C 753.238 790.508 750.305 787.844 750.055 782.496 
	Z 
	"/>
</g>
</g >
</g>
</svg>
